<svg version="1.1" id="Layer_1" xmlns="http://www.w3.org/2000/svg" xmlns:xlink="http://www.w3.org/1999/xlink" x="0px" y="0px"
	 width="100%" viewBox="0 0 784 1168" enable-background="new 0 0 784 1168" xml:space="preserve">
<path fill="#EDEAE1" opacity="1.000000" stroke="none" 
	d="
M454.000000,1169.000000 
	C302.666656,1169.000000 151.833328,1169.000000 1.000000,1169.000000 
	C1.000000,779.666687 1.000000,390.333344 1.000000,1.000000 
	C262.333344,1.000000 523.666687,1.000000 785.000000,1.000000 
	C785.000000,390.333344 785.000000,779.666687 785.000000,1169.000000 
	C674.833313,1169.000000 564.666687,1169.000000 454.000000,1169.000000 
M135.825348,375.679443 
	C135.825348,375.679443 135.768799,375.552765 135.103577,375.589264 
	C134.328629,375.973816 133.553680,376.358337 132.882065,376.768188 
	C132.882065,376.768188 132.856354,376.664948 132.122772,376.716125 
	C130.258423,377.162415 128.394089,377.608673 125.980232,378.179352 
	C125.666985,378.375824 125.353737,378.572296 124.571106,379.081177 
	C124.203735,379.116913 123.836365,379.152649 122.579041,379.108612 
	C117.995399,378.625397 119.028954,382.023346 119.025291,384.462433 
	C118.981529,413.594849 118.976562,442.727417 119.048309,471.859711 
	C119.052475,473.549713 119.804298,475.237915 120.871292,477.191986 
	C148.952988,487.135681 177.034683,497.079407 204.875290,507.695374 
	C203.255157,508.505157 201.697205,509.486786 200.005554,510.098969 
	C174.860764,519.199097 149.693390,528.236877 124.548691,537.337280 
	C122.405273,538.113037 119.099205,538.216064 120.513916,543.003235 
	C120.435928,572.923035 120.353729,602.842896 120.303070,632.762756 
	C120.301743,633.546143 120.644112,634.330078 121.019943,635.600220 
	C121.342178,635.695312 121.664413,635.790405 122.653862,636.205322 
	C140.279419,642.462219 157.925690,648.661560 175.522400,654.998535 
	C185.416122,658.561340 195.228043,662.351318 204.372498,666.266602 
	C176.344696,676.209351 148.316910,686.152161 119.607170,696.579285 
	C119.404274,697.696960 119.025421,698.814514 119.024178,699.932373 
	C118.991417,729.294189 118.980789,758.656128 119.053055,788.017761 
	C119.056297,789.330872 119.873314,790.642029 121.030457,792.302063 
	C186.927582,815.674561 252.819321,839.062317 318.724670,862.411682 
	C342.816498,870.947021 366.940674,879.391174 391.433533,888.146667 
	C391.433533,888.146667 391.887634,888.266357 392.350372,888.789917 
	C413.659760,881.344360 434.989716,873.957031 456.273865,866.440002 
	C490.740936,854.267090 525.187744,842.036499 559.624939,829.779297 
	C595.005127,817.186462 630.363525,804.532593 666.408203,791.416992 
	C666.603149,790.458374 666.967407,789.499878 666.968445,788.541077 
	C666.999878,759.056763 667.012878,729.572327 666.941040,700.088196 
	C666.937744,698.753479 666.117859,697.420715 665.118835,696.025208 
	C664.753052,695.971313 664.387207,695.917480 663.544189,695.341187 
	C659.634827,693.958191 655.735046,692.547302 651.814270,691.197327 
	C638.970459,686.775024 626.118958,682.375000 612.996826,677.395691 
	C612.198120,677.166077 611.399414,676.936462 609.987793,676.269226 
	C600.300781,672.831299 590.613831,669.393433 581.291687,665.323853 
	C608.055542,655.842651 634.817444,646.355774 661.587036,636.890686 
	C663.777588,636.116089 665.995300,635.759521 665.842529,632.456726 
	C665.543579,625.990540 665.608765,619.507446 665.723938,612.112610 
	C665.749329,606.300293 665.879639,600.486084 665.772400,594.676208 
	C665.650452,588.069702 665.316406,581.467041 665.478333,574.012329 
	C665.526672,567.689941 665.575012,561.367615 665.797852,554.127808 
	C665.732239,549.769592 665.666626,545.411377 665.712341,540.364685 
	C664.153625,539.295837 662.728577,537.883057 661.013489,537.216492 
	C652.694824,533.983459 644.330139,530.860962 635.917664,527.880066 
	C630.814453,526.071716 625.594849,524.592102 619.911133,522.405090 
	C617.602966,521.629639 615.294861,520.854248 612.537659,519.564087 
	C611.011353,519.064270 609.485107,518.564392 607.326599,517.699524 
	C598.213867,514.405151 589.101135,511.110748 580.444336,507.276917 
	C608.878784,497.140625 637.313293,487.004303 666.422485,476.393738 
	C666.613586,475.434998 666.970642,474.476471 666.971619,473.517517 
	C667.002380,444.069611 667.013733,414.621613 666.950745,385.173798 
	C666.947815,383.803741 666.233276,382.435181 665.258728,380.853546 
	C664.867310,380.717560 664.475830,380.581573 663.568420,380.040680 
	C662.969421,379.753204 662.390991,379.408173 661.768555,379.186340 
	C625.006287,366.084991 588.244263,352.983093 551.462524,339.936432 
	C549.785706,339.341675 547.928772,339.254730 545.978455,338.395264 
	C545.676331,338.217987 545.374207,338.040710 544.581848,337.352753 
	C538.344910,335.446960 532.107910,333.541138 525.713135,330.890045 
	C524.538635,330.311523 523.408936,329.606201 522.183044,329.173248 
	C496.967682,320.268219 471.743378,311.388489 446.516388,302.516479 
	C433.681610,298.002655 420.838013,293.513885 407.408478,288.597473 
	C404.771790,287.627411 402.172791,286.532318 399.487671,285.722992 
	C396.871979,284.934631 393.820953,283.317657 391.565613,284.016235 
	C383.543304,286.501129 375.778809,289.818329 367.149292,292.882812 
	C360.270355,295.293243 353.364655,297.630371 346.518188,300.129761 
	C333.315826,304.949402 320.146912,309.860718 306.177582,314.800018 
	C305.062134,315.126465 303.926636,315.396912 302.834106,315.787415 
	C267.586517,328.386963 232.343994,341.000702 197.098602,353.606384 
	C177.058716,360.773773 157.015167,367.930847 136.460205,375.066833 
	C136.202454,375.267731 135.944702,375.468628 135.825348,375.679443 
z"/>
<path fill="#0F442B" opacity="1.000000" stroke="none" 
	d="
M580.926819,665.955566 
	C590.613831,669.393433 600.300781,672.831299 609.858032,676.572815 
	C601.054749,679.575012 592.301941,682.046265 583.729614,685.035217 
	C574.877136,688.121826 566.218079,691.759399 557.440857,695.066833 
	C550.025940,697.861023 542.581116,700.578735 535.116699,703.237976 
	C525.824646,706.548462 516.528442,709.852966 507.174988,712.983521 
	C502.446899,714.566101 497.483154,715.473083 492.812500,717.192200 
	C484.529114,720.241028 476.439270,723.814148 468.166443,726.893860 
	C463.757172,728.535339 459.093018,729.478394 454.617950,730.960327 
	C448.499207,732.986633 442.485382,735.330383 436.363647,737.346985 
	C429.028046,739.763611 421.540863,741.741882 414.279083,744.354126 
	C408.060608,746.591064 402.185242,749.792175 395.948975,751.967224 
	C384.622681,755.917603 373.139984,759.419250 361.724609,763.114563 
	C355.338623,765.181763 349.141937,766.160400 342.543732,763.162354 
	C334.929993,759.702820 327.018677,756.853027 319.111481,754.097351 
	C311.213623,751.344910 303.157928,749.046387 295.182922,746.512695 
	C294.569611,746.317871 294.037750,745.851196 293.484253,745.486267 
	C288.461151,742.174927 280.001862,743.817566 275.793335,749.107300 
	C276.531555,750.130920 277.387421,751.275574 278.507965,751.671753 
	C304.316040,760.796753 330.170685,769.790039 355.976410,778.921631 
	C367.690186,783.066711 379.317566,787.455811 391.033142,792.166260 
	C391.388489,795.048767 391.955170,797.498413 391.961243,799.949585 
	C392.024841,825.694397 392.035156,851.439514 391.955444,877.184265 
	C391.944397,880.749329 391.365906,884.312744 391.050110,887.876892 
	C366.940674,879.391174 342.816498,870.947021 318.724670,862.411682 
	C252.819321,839.062317 186.927582,815.674561 120.698639,791.682129 
	C120.340912,759.406372 120.315010,727.750671 120.289108,696.094910 
	C148.316910,686.152161 176.344696,676.209351 205.105438,666.202271 
	C217.615463,670.156921 229.431366,674.066162 241.162643,678.214722 
	C282.041626,692.670776 322.875275,707.255066 363.764008,721.683289 
	C373.287720,725.043945 382.960938,727.980896 392.805969,731.421631 
	C397.910492,730.179749 402.820099,728.758240 407.631195,727.058167 
	C452.842499,711.082153 498.031250,695.042480 543.239990,679.059265 
	C555.779175,674.626038 568.363281,670.319946 580.926819,665.955566 
z"/>
<path fill="#0F442A" opacity="1.000000" stroke="none" 
	d="
M205.116379,507.023102 
	C177.034683,497.079407 148.952988,487.135681 120.581848,476.597717 
	C120.309631,446.408508 120.313644,416.813568 120.372131,387.218719 
	C120.376274,385.120636 120.781105,383.023315 121.343971,381.071472 
	C125.112526,382.185120 128.536728,383.152954 132.154938,384.336060 
	C132.899170,384.702148 133.449387,384.852997 134.260025,385.250244 
	C136.670670,386.028656 138.820892,386.560669 140.983215,387.053345 
	C140.995316,387.014008 140.933701,387.068542 141.150497,387.347839 
	C152.570206,391.698792 163.773117,395.770477 175.306976,399.950195 
	C176.740189,400.400330 177.842468,400.742462 179.212891,401.324768 
	C181.640076,402.074524 183.799133,402.584137 185.977356,403.048950 
	C185.996536,403.004150 185.938065,403.082123 186.095566,403.341309 
	C186.827042,403.763306 187.401001,403.926147 187.985550,404.052246 
	C187.996124,404.015472 187.933914,404.059998 188.170944,404.323822 
	C198.584717,408.123352 208.761459,411.659088 219.139786,415.399231 
	C219.886002,415.763397 220.430649,415.923157 221.206940,416.151978 
	C221.438599,416.221008 221.905212,416.347565 222.108429,416.518860 
	C222.824173,416.808594 223.336716,416.927032 224.123886,417.289795 
	C229.593506,419.328705 234.788513,421.123352 240.270538,423.074951 
	C241.382477,423.476807 242.207382,423.721680 243.342377,424.154724 
	C245.935501,425.229279 248.239532,426.065704 250.496460,427.014191 
	C253.582031,428.310913 256.511658,428.616791 259.352417,426.027161 
	C259.565948,426.016052 259.990234,425.963013 260.313049,425.970398 
	C261.419525,425.637085 262.203186,425.296448 263.273254,424.969360 
	C264.053131,424.730591 264.546600,424.478241 265.431366,424.176056 
	C272.966339,421.448700 280.110016,418.771179 287.440979,416.101776 
	C287.628204,416.109894 287.998749,416.053009 288.383057,416.048706 
	C320.298889,404.973846 351.842224,393.936707 383.348969,382.796112 
	C388.003174,381.150421 392.484406,379.015381 397.050446,377.063538 
	C397.055237,377.020325 397.072174,377.106598 397.465820,377.142822 
	C400.917847,376.144226 403.976227,375.109436 407.324768,374.046509 
	C408.090149,373.719543 408.565399,373.420715 409.394226,373.093079 
	C411.179871,372.414490 412.611877,371.764679 414.057739,371.088135 
	C414.071533,371.061401 414.089172,371.118927 414.485870,371.156250 
	C423.035889,368.460266 431.237244,365.860870 439.329437,362.957367 
	C448.032654,359.834656 456.633545,356.426727 465.654022,353.125488 
	C476.982147,349.274689 487.956970,345.502045 498.881775,341.589844 
	C507.908813,338.357239 516.876831,334.959778 525.870972,331.635345 
	C532.107910,333.541138 538.344910,335.446960 544.579224,337.889526 
	C542.562805,339.164612 540.598450,340.122589 538.523621,340.589081 
	C535.515381,341.265442 532.052246,340.928833 530.797485,344.969971 
	C530.584106,345.008423 530.152954,345.054199 529.733398,345.034760 
	C525.605225,346.410492 521.896606,347.805664 518.145386,349.202393 
	C518.102783,349.203888 518.078308,349.122192 517.665527,349.082886 
	C512.850403,350.358246 508.178406,351.120209 504.104340,353.107697 
	C496.618347,356.759644 487.827026,355.461090 480.568481,360.579742 
	C475.521606,364.138733 469.056519,365.808167 463.074615,367.889374 
	C455.420959,370.552094 447.536591,372.555084 439.897522,375.255096 
	C431.294159,378.295929 422.888184,381.890869 414.326538,385.055878 
	C410.078308,386.626343 405.614319,387.608826 401.351196,389.144043 
	C389.239655,393.505676 377.137146,397.900543 365.129120,402.536346 
	C361.588715,403.903107 358.374634,406.115112 354.810150,407.996521 
	C354.609314,408.053253 354.192413,408.072815 353.762817,408.047974 
	C348.363403,409.437225 343.327637,410.660248 338.450348,412.342804 
	C335.846283,413.241058 333.515839,414.932587 330.794983,416.489990 
	C313.161804,423.006805 295.795471,429.299683 277.210388,436.034180 
	C283.718719,438.344543 288.959503,440.222870 294.212433,442.066406 
	C313.143188,448.710205 332.078064,455.342346 351.329712,462.050018 
	C352.080170,462.111877 352.512360,462.102631 352.904175,462.110657 
	C352.863861,462.127991 352.843140,462.213287 353.051880,462.499023 
	C361.519928,465.876648 369.779175,468.968506 378.159607,472.263397 
	C378.497040,472.711914 378.764252,472.873016 379.052246,472.931213 
	C379.022095,472.912750 379.084198,472.878906 379.120300,473.234680 
	C382.415833,475.932892 385.586060,478.571716 390.051819,476.878784 
	C390.041870,476.885986 390.054871,476.905609 390.272095,477.231750 
	C390.992828,479.054230 391.930786,480.549255 391.935425,482.047150 
	C392.022766,510.322205 392.050110,538.597900 391.873596,566.872131 
	C391.863129,568.553406 390.032593,570.223206 388.821198,571.908325 
	C388.267151,571.866699 388.027924,571.694397 387.812073,571.141235 
	C387.187408,570.853638 386.626343,570.825989 385.718201,570.794800 
	C384.252472,570.519165 383.133850,570.247070 381.723877,569.761475 
	C371.944275,566.410217 362.456024,563.272461 352.771332,559.836792 
	C346.703918,557.401978 340.832947,555.265015 334.630554,552.958191 
	C331.954285,551.964417 329.611969,551.133301 327.264252,550.317749 
	C309.873657,544.277100 292.482086,538.239441 274.858582,531.984253 
	C270.376740,530.270691 266.127136,528.773865 261.549377,527.109619 
	C245.628510,521.528442 230.035782,516.114624 214.168930,510.458374 
	C210.968674,509.151703 208.042526,508.087402 205.116379,507.023102 
z"/>
<path fill="#9D6739" opacity="1.000000" stroke="none" 
	d="
M334.961975,553.128052 
	C340.832947,555.265015 346.703918,557.401978 352.562134,560.103027 
	C342.159393,565.123169 331.789948,569.628052 321.373383,574.021240 
	C311.573792,578.154236 301.724487,582.169373 291.537781,586.249023 
	C285.865662,588.357239 280.552826,590.452759 274.174561,592.968506 
	C276.394165,593.909058 277.390015,594.393921 278.427429,594.761353 
	C292.377045,599.702698 306.305908,604.704529 320.295013,609.531738 
	C331.127991,613.269897 342.038147,616.784363 353.144989,620.652344 
	C359.208679,622.971069 365.041412,625.035706 371.139282,627.355530 
	C378.553162,630.109436 385.701935,632.608154 392.899292,635.564697 
	C392.998108,645.653809 393.048309,655.285156 393.068115,665.391724 
	C393.067017,672.278931 393.096252,678.690979 393.094177,685.564087 
	C393.071442,697.658203 393.080048,709.291138 393.050720,721.389038 
	C392.863647,724.940308 392.714508,728.026489 392.565369,731.112732 
	C382.960938,727.980896 373.287720,725.043945 363.764008,721.683289 
	C322.875275,707.255066 282.041626,692.670776 241.162643,678.214722 
	C229.431366,674.066162 217.615463,670.156921 205.457581,666.088501 
	C195.228043,662.351318 185.416122,658.561340 175.522400,654.998535 
	C157.925690,648.661560 140.279419,642.462219 122.174583,635.851929 
	C121.456642,635.255066 121.166946,635.126770 120.826202,635.113770 
	C120.644112,634.330078 120.301743,633.546143 120.303070,632.762756 
	C120.353729,602.842896 120.435928,572.923035 120.936897,542.501587 
	C124.678871,539.077820 127.786095,541.547668 130.854507,542.505005 
	C136.278290,544.197266 141.621002,546.149353 147.322021,548.148071 
	C154.573120,550.928833 161.459259,553.668396 168.438126,556.146973 
	C175.245071,558.564392 182.146835,560.714966 189.246094,563.249268 
	C194.962921,565.355103 200.440613,567.194275 206.204849,569.266846 
	C221.054184,574.627747 235.602844,579.796265 250.197906,584.830261 
	C251.984238,585.446472 254.242493,586.006104 255.897949,585.449585 
	C261.381592,583.605896 266.689514,581.239563 272.401215,578.922913 
	C288.931244,572.468018 305.161011,566.254211 321.295990,559.803284 
	C325.990479,557.926270 330.414124,555.371887 334.961975,553.128052 
z"/>
<path fill="#308647" opacity="1.000000" stroke="none" 
	d="
M665.747742,476.868011 
	C637.313293,487.004303 608.878784,497.140625 579.823730,507.559814 
	C561.460266,514.039978 543.698059,520.182190 525.978760,526.446045 
	C490.521790,538.980286 455.102081,551.620117 419.635345,564.126648 
	C410.883209,567.212952 402.009735,569.955139 393.135040,572.403809 
	C393.055115,568.291016 393.018494,564.630005 393.011444,560.968994 
	C392.957581,533.012878 392.909485,505.056732 393.241333,477.035400 
	C400.324463,474.627502 407.036377,472.314575 413.723389,469.931763 
	C418.176514,468.344940 422.594055,466.658295 427.398376,464.964355 
	C443.558411,459.420502 459.354401,453.948242 475.126617,448.408295 
	C476.818909,447.813873 478.372803,446.825409 480.367371,446.007965 
	C483.385925,444.755920 485.931732,443.210693 488.690521,442.340515 
	C494.008789,440.663025 499.555664,439.678436 504.814697,437.850983 
	C517.603638,433.406921 530.281982,428.644867 543.378418,423.964996 
	C549.401367,422.020020 555.077332,420.195862 560.695862,418.209442 
	C591.163025,407.437592 621.629456,396.663147 652.058105,385.783295 
	C656.176514,384.310730 660.080933,382.239563 664.084412,380.445587 
	C664.475830,380.581573 664.867310,380.717560 665.510864,381.420746 
	C665.757996,413.614624 665.752869,445.241333 665.747742,476.868011 
z"/>
<path fill="#308647" opacity="1.000000" stroke="none" 
	d="
M665.731445,791.905396 
	C630.363525,804.532593 595.005127,817.186462 559.624939,829.779297 
	C525.187744,842.036499 490.740936,854.267090 456.273865,866.440002 
	C434.989716,873.957031 413.659760,881.344360 392.441071,888.227722 
	C392.692566,886.695862 392.993774,885.726196 392.993805,884.756531 
	C392.994354,853.848877 392.965759,822.941284 393.325073,791.976746 
	C403.385742,788.683105 413.102966,785.560059 422.725555,782.168518 
	C428.893341,779.994690 434.921570,777.424744 441.397522,775.011536 
	C456.604431,769.911133 471.430511,764.844055 486.234589,759.713379 
	C486.939667,759.468994 487.449402,758.661011 488.449951,758.094849 
	C499.189148,754.732910 509.571838,751.518433 519.852966,748.006592 
	C526.977173,745.573059 533.961304,742.729797 541.381104,740.007385 
	C576.947510,727.745178 612.164429,715.612671 647.310242,703.277283 
	C653.041870,701.265625 658.458984,698.357483 664.021423,695.863586 
	C664.387207,695.917480 664.753052,695.971313 665.430481,696.516846 
	C665.738525,728.640808 665.734985,760.273071 665.731445,791.905396 
z"/>
<path fill="#3B9D48" opacity="1.000000" stroke="none" 
	d="
M265.040100,424.225891 
	C264.546600,424.478241 264.053131,424.730591 263.063721,424.737274 
	C261.708649,424.982086 260.849457,425.472565 259.990234,425.963013 
	C259.990234,425.963013 259.565948,426.016052 258.897644,426.011139 
	C254.358734,425.276672 250.497864,424.487213 246.611496,423.854248 
	C245.455200,423.665924 244.227341,423.916901 243.032272,423.966553 
	C242.207382,423.721680 241.382477,423.476807 240.202240,422.729797 
	C235.024994,418.923950 229.856674,416.689545 223.849258,417.045502 
	C223.336716,416.927032 222.824173,416.808594 222.074615,416.312378 
	C221.550156,415.984039 221.262726,416.033478 220.975296,416.082886 
	C220.430649,415.923157 219.886002,415.763397 219.100479,415.026917 
	C213.774811,412.240143 208.869247,409.177002 203.554718,408.060608 
	C198.264114,406.949188 193.985962,401.861328 187.933914,404.059998 
	C187.933914,404.059998 187.996124,404.015472 187.818756,403.796509 
	C187.073624,403.412415 186.505844,403.247253 185.938065,403.082123 
	C185.938065,403.082123 185.996536,403.004150 185.785736,402.764038 
	C183.364853,402.044159 181.154800,401.564362 178.944733,401.084595 
	C177.842468,400.742462 176.740189,400.400330 175.239319,399.622925 
	C171.819641,397.600891 168.918610,395.697693 165.751389,394.496155 
	C159.945511,392.293579 154.005814,390.430389 148.073410,388.581299 
	C145.761002,387.860535 143.317505,387.560303 140.933701,387.068542 
	C140.933701,387.068542 140.995316,387.014008 140.792084,386.767517 
	C138.392456,386.015320 136.196030,385.509583 133.999603,385.003845 
	C133.449387,384.852997 132.899170,384.702148 132.098480,383.975952 
	C130.598145,382.518707 129.348251,381.636749 127.641487,380.432434 
	C129.591736,379.023468 131.224045,377.844208 132.856354,376.664948 
	C132.856354,376.664948 132.882065,376.768188 133.199402,376.828613 
	C134.267426,376.443634 135.018112,375.998199 135.768799,375.552765 
	C135.768799,375.552765 135.825348,375.679443 136.012756,375.695251 
	C136.457870,375.504883 136.715561,375.298706 136.973267,375.092529 
	C157.015167,367.930847 177.058716,360.773773 197.098602,353.606384 
	C232.343994,341.000702 267.586517,328.386963 302.834106,315.787415 
	C303.926636,315.396912 305.062134,315.126465 306.499481,315.091553 
	C308.520355,316.396454 311.068848,317.011871 311.763824,318.495544 
	C314.140076,323.568451 320.715912,326.997559 318.149506,334.155518 
	C317.845398,335.003693 319.104462,336.298035 319.129425,337.397095 
	C319.290222,344.475159 324.512512,351.479584 319.423157,358.690552 
	C318.908447,359.419769 319.183533,360.993530 319.552246,362.008118 
	C320.951904,365.859436 322.724670,369.580994 324.013397,373.465393 
	C325.712891,378.587646 327.088013,383.817566 328.769104,389.571167 
	C330.557159,389.571167 333.023438,389.571167 335.489685,389.571167 
	C335.555756,390.012115 335.621796,390.453094 335.687866,390.894043 
	C334.431549,391.247162 333.098053,392.055817 331.935028,391.858704 
	C329.501862,391.446289 326.838654,390.919952 326.429626,393.955505 
	C326.242096,395.346924 328.414764,397.040314 329.471954,398.626831 
	C329.736633,399.024139 329.827026,399.537537 329.652283,400.151855 
	C324.538940,401.431885 319.323242,401.691650 315.101227,403.873871 
	C307.625183,407.738007 300.027496,410.680603 291.765594,412.218811 
	C290.322052,412.487610 289.245056,414.724884 287.998749,416.053009 
	C287.998749,416.053009 287.628204,416.109894 286.999023,416.071472 
	C278.698303,417.301880 270.932129,418.324249 265.040100,424.225891 
z"/>
<path fill="#D7A76D" opacity="1.000000" stroke="none" 
	d="
M393.088684,720.924072 
	C393.080048,709.291138 393.071442,697.658203 393.462738,685.519531 
	C406.218903,680.169312 418.645416,675.495789 430.918701,670.449463 
	C473.764893,652.832764 516.540588,635.044678 559.377502,617.405334 
	C588.393250,605.457336 617.453674,593.617371 646.524902,581.804993 
	C652.638977,579.320740 658.887817,577.168152 665.074585,574.862732 
	C665.316406,581.467041 665.650452,588.069702 665.772400,594.676208 
	C665.879639,600.486084 665.749329,606.300293 665.276978,612.585327 
	C663.397766,613.473206 661.918884,613.771423 660.540100,614.320740 
	C635.270447,624.387878 610.048096,634.574829 584.743347,644.552795 
	C553.732300,656.780884 522.669617,668.878784 491.598053,680.952576 
	C478.609497,685.999695 465.506592,690.752319 452.517914,695.799072 
	C439.538422,700.842224 426.578400,705.945496 413.724152,711.296997 
	C406.723114,714.211670 399.959442,717.696472 393.088684,720.924072 
z"/>
<path fill="#60AB47" opacity="1.000000" stroke="none" 
	d="
M663.826416,380.243134 
	C660.080933,382.239563 656.176514,384.310730 652.058105,385.783295 
	C621.629456,396.663147 591.163025,407.437592 560.695862,418.209442 
	C555.077332,420.195862 549.401367,422.020020 543.095947,423.694611 
	C540.804688,423.343262 538.969238,422.672119 537.570007,423.186707 
	C532.401550,425.087494 529.844604,422.010986 528.394043,418.150879 
	C527.495605,415.759949 527.582703,412.632385 528.235168,410.094574 
	C530.087708,402.888977 528.610413,397.603546 522.873657,393.257599 
	C519.904297,391.008057 516.971130,388.710724 514.699890,386.958374 
	C515.901245,381.644836 518.539795,376.725494 517.466553,372.828339 
	C516.386780,368.907288 511.615143,366.002899 507.807831,361.958984 
	C510.142517,361.581512 512.095337,361.618317 513.729675,360.914978 
	C515.919739,359.972504 519.259216,358.753540 519.605469,357.122528 
	C520.218811,354.233429 517.876953,352.007294 514.741516,351.505859 
	C516.005493,350.553955 517.041931,349.838104 518.078308,349.122192 
	C518.078308,349.122192 518.102783,349.203888 518.534546,349.212494 
	C522.695190,347.832123 526.424072,346.443176 530.152954,345.054199 
	C530.152954,345.054199 530.584106,345.008423 531.181030,344.982422 
	C536.570618,342.948059 541.363159,340.939667 546.155762,338.931274 
	C547.928772,339.254730 549.785706,339.341675 551.462524,339.936432 
	C588.244263,352.983093 625.006287,366.084991 661.768555,379.186340 
	C662.390991,379.408173 662.969421,379.753204 663.826416,380.243134 
z"/>
<path fill="#EBBE85" opacity="1.000000" stroke="none" 
	d="
M392.850708,635.106812 
	C385.701935,632.608154 378.553162,630.109436 371.390320,627.088745 
	C402.632751,613.844971 433.939270,601.244507 465.132690,588.369934 
	C501.556366,573.336731 537.904419,558.119446 574.238159,542.869690 
	C589.696350,536.381714 605.034729,529.608459 620.427490,522.964844 
	C625.594849,524.592102 630.814453,526.071716 635.917664,527.880066 
	C644.330139,530.860962 652.694824,533.983459 661.013489,537.216492 
	C662.728577,537.883057 664.153625,539.295837 665.341370,540.637451 
	C663.217590,541.017883 661.349060,540.769592 659.732239,541.295349 
	C653.113342,543.447571 646.562012,545.809753 640.002563,548.141968 
	C611.852966,558.150452 583.708191,568.172363 555.564148,578.196411 
	C540.858215,583.434265 526.176025,588.739075 511.450012,593.919556 
	C491.247772,601.026367 471.022491,608.068115 450.791290,615.092346 
	C431.488281,621.794128 412.165039,628.437683 392.850708,635.106812 
z"/>
<path fill="#D6A76C" opacity="1.000000" stroke="none" 
	d="
M392.899292,635.564697 
	C412.165039,628.437683 431.488281,621.794128 450.791290,615.092346 
	C471.022491,608.068115 491.247772,601.026367 511.450012,593.919556 
	C526.176025,588.739075 540.858215,583.434265 555.564148,578.196411 
	C583.708191,568.172363 611.852966,558.150452 640.002563,548.141968 
	C646.562012,545.809753 653.113342,543.447571 659.732239,541.295349 
	C661.349060,540.769592 663.217590,541.017883 665.285706,540.981689 
	C665.666626,545.411377 665.732239,549.769592 665.330933,554.567993 
	C663.258667,555.327942 661.558167,555.408752 660.062866,556.004761 
	C646.335449,561.475525 632.608093,566.949585 618.948669,572.587341 
	C589.167969,584.878906 559.450256,597.323364 529.664062,609.601440 
	C492.664032,624.853271 455.636200,640.038086 418.584381,655.163574 
	C410.165009,658.600586 401.597687,661.675110 393.098480,664.916443 
	C393.048309,655.285156 392.998108,645.653809 392.899292,635.564697 
z"/>
<path fill="#C4935B" opacity="1.000000" stroke="none" 
	d="
M393.192047,572.855530 
	C402.009735,569.955139 410.883209,567.212952 419.635345,564.126648 
	C455.102081,551.620117 490.521790,538.980286 525.978760,526.446045 
	C543.698059,520.182190 561.460266,514.039978 579.595703,507.829529 
	C589.101135,511.110748 598.213867,514.405151 607.406738,518.139038 
	C604.216797,519.771423 600.939941,520.946289 597.677673,522.160156 
	C579.136475,529.059082 560.657288,536.129944 542.045776,542.833679 
	C515.152100,552.520752 488.173187,561.971863 461.212677,571.472717 
	C426.403412,583.739319 391.586761,595.985413 356.728424,608.111389 
	C354.864807,608.759766 352.399414,608.764404 350.530853,608.132324 
	C339.980377,604.563416 329.526733,600.708313 319.255005,596.684021 
	C323.514008,594.588989 327.531525,592.698853 331.608154,590.945984 
	C338.620789,587.930664 345.657166,584.969360 352.707397,582.042786 
	C362.465118,577.992310 372.244904,573.994995 382.015259,569.974976 
	C383.133850,570.247070 384.252472,570.519165 386.001831,570.943848 
	C387.046936,571.198059 387.461304,571.299683 387.875671,571.401306 
	C388.027924,571.694397 388.267151,571.866699 389.108856,572.141602 
	C390.813568,572.528503 392.002808,572.692017 393.192047,572.855530 
z"/>
<path fill="#BB8752" opacity="1.000000" stroke="none" 
	d="
M393.068115,665.391724 
	C401.597687,661.675110 410.165009,658.600586 418.584381,655.163574 
	C455.636200,640.038086 492.664032,624.853271 529.664062,609.601440 
	C559.450256,597.323364 589.167969,584.878906 618.948669,572.587341 
	C632.608093,566.949585 646.335449,561.475525 660.062866,556.004761 
	C661.558167,555.408752 663.258667,555.327942 665.243652,555.026733 
	C665.575012,561.367615 665.526672,567.689941 665.276489,574.437500 
	C658.887817,577.168152 652.638977,579.320740 646.524902,581.804993 
	C617.453674,593.617371 588.393250,605.457336 559.377502,617.405334 
	C516.540588,635.044678 473.764893,652.832764 430.918701,670.449463 
	C418.645416,675.495789 406.218903,680.169312 393.494080,685.058350 
	C393.096252,678.690979 393.067017,672.278931 393.068115,665.391724 
z"/>
<path fill="#43A048" opacity="1.000000" stroke="none" 
	d="
M329.997559,399.997559 
	C329.827026,399.537537 329.736633,399.024139 329.471954,398.626831 
	C328.414764,397.040314 326.242096,395.346924 326.429626,393.955505 
	C326.838654,390.919952 329.501862,391.446289 331.935028,391.858704 
	C333.098053,392.055817 334.431549,391.247162 335.687866,390.894043 
	C335.621796,390.453094 335.555756,390.012115 335.489685,389.571167 
	C333.023438,389.571167 330.557159,389.571167 328.769104,389.571167 
	C327.088013,383.817566 325.712891,378.587646 324.013397,373.465393 
	C322.724670,369.580994 320.951904,365.859436 319.552246,362.008118 
	C319.183533,360.993530 318.908447,359.419769 319.423157,358.690552 
	C324.512512,351.479584 319.290222,344.475159 319.129425,337.397095 
	C319.104462,336.298035 317.845398,335.003693 318.149506,334.155518 
	C320.715912,326.997559 314.140076,323.568451 311.763824,318.495544 
	C311.068848,317.011871 308.520355,316.396454 306.892761,315.058563 
	C320.146912,309.860718 333.315826,304.949402 346.518188,300.129761 
	C353.364655,297.630371 360.270355,295.293243 367.788696,293.142822 
	C369.883026,293.650818 371.377045,293.764130 372.785492,294.172455 
	C376.664825,295.297241 376.187775,297.781281 374.790436,301.184967 
	C373.260406,304.911835 371.733704,307.845520 368.350830,310.008057 
	C367.796021,310.362701 368.137604,312.552490 368.471252,313.784088 
	C369.538208,317.722412 371.222900,321.538452 371.882874,325.531708 
	C372.933350,331.887787 373.056091,338.397797 374.117889,344.751312 
	C375.169769,351.045776 376.134552,357.464752 383.946838,359.829041 
	C387.509216,360.907135 387.595612,364.963287 386.791687,368.016632 
	C386.425446,369.407501 384.080414,370.445648 382.449066,371.287354 
	C380.842468,372.116333 378.952454,372.375793 377.275879,373.093323 
	C372.535583,375.122101 370.615662,380.128693 372.793030,384.263397 
	C368.202179,386.107697 363.812378,387.680237 359.433929,389.283813 
	C358.042389,389.793457 356.697601,390.431458 355.303497,390.933136 
	C346.872681,393.967102 338.433777,396.978546 329.997559,399.997559 
z"/>
<path fill="#C39760" opacity="1.000000" stroke="none" 
	d="
M393.050720,721.389038 
	C399.959442,717.696472 406.723114,714.211670 413.724152,711.296997 
	C426.578400,705.945496 439.538422,700.842224 452.517914,695.799072 
	C465.506592,690.752319 478.609497,685.999695 491.598053,680.952576 
	C522.669617,668.878784 553.732300,656.780884 584.743347,644.552795 
	C610.048096,634.574829 635.270447,624.387878 660.540100,614.320740 
	C661.918884,613.771423 663.397766,613.473206 665.176636,613.044678 
	C665.608765,619.507446 665.543579,625.990540 665.842529,632.456726 
	C665.995300,635.759521 663.777588,636.116089 661.587036,636.890686 
	C634.817444,646.355774 608.055542,655.842651 581.109253,665.639709 
	C568.363281,670.319946 555.779175,674.626038 543.239990,679.059265 
	C498.031250,695.042480 452.842499,711.082153 407.631195,727.058167 
	C402.820099,728.758240 397.910492,730.179749 392.805969,731.421631 
	C392.714508,728.026489 392.863647,724.940308 393.050720,721.389038 
z"/>
<path fill="#4AA248" opacity="1.000000" stroke="none" 
	d="
M372.998444,384.003662 
	C370.615662,380.128693 372.535583,375.122101 377.275879,373.093323 
	C378.952454,372.375793 380.842468,372.116333 382.449066,371.287354 
	C384.080414,370.445648 386.425446,369.407501 386.791687,368.016632 
	C387.595612,364.963287 387.509216,360.907135 383.946838,359.829041 
	C376.134552,357.464752 375.169769,351.045776 374.117889,344.751312 
	C373.056091,338.397797 372.933350,331.887787 371.882874,325.531708 
	C371.222900,321.538452 369.538208,317.722412 368.471252,313.784088 
	C368.137604,312.552490 367.796021,310.362701 368.350830,310.008057 
	C371.733704,307.845520 373.260406,304.911835 374.790436,301.184967 
	C376.187775,297.781281 376.664825,295.297241 372.785492,294.172455 
	C371.377045,293.764130 369.883026,293.650818 368.172394,293.111603 
	C375.778809,289.818329 383.543304,286.501129 391.565613,284.016235 
	C393.820953,283.317657 396.871979,284.934631 399.487671,285.722992 
	C402.172791,286.532318 404.771790,287.627411 407.751831,289.161743 
	C410.328003,291.150421 412.522186,292.640961 414.806702,293.977020 
	C416.458771,294.943207 418.230774,295.704254 420.701813,296.930115 
	C415.477142,300.913605 409.902679,293.926147 405.852600,299.984833 
	C408.548462,301.197418 411.121582,302.354797 414.337952,303.801483 
	C410.055969,307.740173 412.914062,309.501678 415.864075,311.293976 
	C418.913116,313.146484 422.197388,315.109039 420.626221,319.447388 
	C419.154388,323.511597 420.526703,325.855743 424.307678,327.163208 
	C431.235687,329.558929 433.162170,336.259033 432.483459,341.503082 
	C431.709625,347.482422 434.052795,349.416565 438.146667,351.489868 
	C438.294281,351.564636 438.486115,351.634552 438.558594,351.762604 
	C439.299652,353.071869 440.020264,354.392731 440.746552,355.710388 
	C439.436798,356.065887 438.139404,356.479950 436.813507,356.758820 
	C435.698608,356.993286 434.550629,357.070343 433.417267,357.217102 
	C433.445587,357.588837 433.473877,357.960602 433.502167,358.332336 
	C435.339722,358.892792 437.177277,359.453217 438.770935,360.271484 
	C433.356445,362.023773 428.185852,363.518250 422.862732,364.732117 
	C418.467377,362.110046 419.174561,366.304230 417.806885,368.267822 
	C416.437286,369.385315 415.263245,370.252136 414.089172,371.118927 
	C414.089172,371.118927 414.071533,371.061401 413.659515,371.053772 
	C411.845215,371.738068 410.442902,372.429993 409.040619,373.121918 
	C408.565399,373.420715 408.090149,373.719543 407.101624,373.799591 
	C403.416260,374.756104 400.244232,375.931366 397.072174,377.106628 
	C397.072174,377.106598 397.055237,377.020325 396.647827,377.031738 
	C393.853119,377.683624 391.445679,378.257965 389.082642,378.977997 
	C383.709656,380.615173 378.358490,382.323975 372.998444,384.003662 
M424.424988,356.375732 
	C425.306671,356.896332 426.188385,357.416931 427.070099,357.937531 
	C427.280548,357.385895 427.491028,356.834229 427.701508,356.282593 
	C426.633972,356.102234 425.566406,355.921875 424.424988,356.375732 
z"/>
<path fill="#52A548" opacity="1.000000" stroke="none" 
	d="
M439.014832,360.013641 
	C437.177277,359.453217 435.339722,358.892792 433.502167,358.332336 
	C433.473877,357.960602 433.445587,357.588837 433.417267,357.217102 
	C434.550629,357.070343 435.698608,356.993286 436.813507,356.758820 
	C438.139404,356.479950 439.436798,356.065887 440.746552,355.710388 
	C440.020264,354.392731 439.299652,353.071869 438.558594,351.762604 
	C438.486115,351.634552 438.294281,351.564636 438.146667,351.489868 
	C434.052795,349.416565 431.709625,347.482422 432.483459,341.503082 
	C433.162170,336.259033 431.235687,329.558929 424.307678,327.163208 
	C420.526703,325.855743 419.154388,323.511597 420.626221,319.447388 
	C422.197388,315.109039 418.913116,313.146484 415.864075,311.293976 
	C412.914062,309.501678 410.055969,307.740173 414.337952,303.801483 
	C411.121582,302.354797 408.548462,301.197418 405.852600,299.984833 
	C409.902679,293.926147 415.477142,300.913605 420.701813,296.930115 
	C418.230774,295.704254 416.458771,294.943207 414.806702,293.977020 
	C412.522186,292.640961 410.328003,291.150421 408.046753,289.369873 
	C420.838013,293.513885 433.681610,298.002655 446.516388,302.516479 
	C471.743378,311.388489 496.967682,320.268219 522.183044,329.173248 
	C523.408936,329.606201 524.538635,330.311523 525.792053,331.262695 
	C516.876831,334.959778 507.908813,338.357239 498.881775,341.589844 
	C487.956970,345.502045 476.982147,349.274689 465.210236,353.083740 
	C460.898468,353.893280 457.376740,354.623474 453.919281,355.584900 
	C448.926666,356.973206 443.980713,358.529205 439.014832,360.013641 
z"/>
<path fill="#5FAB48" opacity="1.000000" stroke="none" 
	d="
M663.782837,695.602417 
	C658.458984,698.357483 653.041870,701.265625 647.310242,703.277283 
	C612.164429,715.612671 576.947510,727.745178 541.337891,739.651978 
	C536.909607,733.069885 536.896790,733.058105 541.987061,727.519775 
	C544.814331,724.443665 545.701233,721.420288 542.549805,717.880188 
	C541.842651,717.085754 541.673401,715.019409 542.199463,714.050598 
	C545.344482,708.259033 545.135376,707.327454 539.425415,704.006470 
	C564.278198,695.257812 588.774353,686.612061 613.270447,677.966370 
	C626.118958,682.375000 638.970459,686.775024 651.814270,691.197327 
	C655.735046,692.547302 659.634827,693.958191 663.782837,695.602417 
z"/>
<path fill="#D0A064" opacity="1.000000" stroke="none" 
	d="
M620.169312,522.684998 
	C605.034729,529.608459 589.696350,536.381714 574.238159,542.869690 
	C537.904419,558.119446 501.556366,573.336731 465.132690,588.369934 
	C433.939270,601.244507 402.632751,613.844971 371.125214,626.833496 
	C365.041412,625.035706 359.208679,622.971069 353.336670,620.316772 
	C379.201172,609.774780 405.080200,599.757385 431.015472,589.887817 
	C458.511078,579.424500 486.075134,569.141357 513.581177,558.705566 
	C536.899475,549.858704 560.198547,540.960266 583.463867,531.975342 
	C593.360291,528.153381 603.149048,524.052795 612.986694,520.078796 
	C615.294861,520.854248 617.602966,521.629639 620.169312,522.684998 
z"/>
<path fill="#EBBE85" opacity="1.000000" stroke="none" 
	d="
M612.762207,519.821411 
	C603.149048,524.052795 593.360291,528.153381 583.463867,531.975342 
	C560.198547,540.960266 536.899475,549.858704 513.581177,558.705566 
	C486.075134,569.141357 458.511078,579.424500 431.015472,589.887817 
	C405.080200,599.757385 379.201172,609.774780 353.105713,620.062744 
	C342.038147,616.784363 331.127991,613.269897 320.295013,609.531738 
	C306.305908,604.704529 292.377045,599.702698 278.427429,594.761353 
	C277.390015,594.393921 276.394165,593.909058 274.174561,592.968506 
	C280.552826,590.452759 285.865662,588.357239 291.650391,586.573975 
	C301.094879,590.241089 310.067505,593.595886 319.040100,596.950684 
	C329.526733,600.708313 339.980377,604.563416 350.530853,608.132324 
	C352.399414,608.764404 354.864807,608.759766 356.728424,608.111389 
	C391.586761,595.985413 426.403412,583.739319 461.212677,571.472717 
	C488.173187,561.971863 515.152100,552.520752 542.045776,542.833679 
	C560.657288,536.129944 579.136475,529.059082 597.677673,522.160156 
	C600.939941,520.946289 604.216797,519.771423 607.722839,518.321594 
	C609.485107,518.564392 611.011353,519.064270 612.762207,519.821411 
z"/>
<path fill="#0A4D1B" opacity="1.000000" stroke="none" 
	d="
M613.133667,677.681030 
	C588.774353,686.612061 564.278198,695.257812 539.066528,704.088013 
	C518.571655,711.238708 498.792389,718.204956 478.658081,725.245544 
	C474.859283,726.490906 471.396973,727.610229 467.975555,728.843140 
	C459.630615,731.850281 451.304657,734.910034 442.590668,737.969666 
	C413.609253,747.917664 385.013519,757.859924 356.391754,767.726807 
	C354.942322,768.226440 353.081482,768.615112 351.727966,768.145447 
	C336.028198,762.697144 320.402588,757.035583 304.729034,751.510925 
	C295.403107,748.223694 286.214233,743.025269 276.034302,748.879639 
	C280.001862,743.817566 288.461151,742.174927 293.484253,745.486267 
	C294.037750,745.851196 294.569611,746.317871 295.182922,746.512695 
	C303.157928,749.046387 311.213623,751.344910 319.111481,754.097351 
	C327.018677,756.853027 334.929993,759.702820 342.543732,763.162354 
	C349.141937,766.160400 355.338623,765.181763 361.724609,763.114563 
	C373.139984,759.419250 384.622681,755.917603 395.948975,751.967224 
	C402.185242,749.792175 408.060608,746.591064 414.279083,744.354126 
	C421.540863,741.741882 429.028046,739.763611 436.363647,737.346985 
	C442.485382,735.330383 448.499207,732.986633 454.617950,730.960327 
	C459.093018,729.478394 463.757172,728.535339 468.166443,726.893860 
	C476.439270,723.814148 484.529114,720.241028 492.812500,717.192200 
	C497.483154,715.473083 502.446899,714.566101 507.174988,712.983521 
	C516.528442,709.852966 525.824646,706.548462 535.116699,703.237976 
	C542.581116,700.578735 550.025940,697.861023 557.440857,695.066833 
	C566.218079,691.759399 574.877136,688.121826 583.729614,685.035217 
	C592.301941,682.046265 601.054749,679.575012 610.164551,676.791626 
	C611.399414,676.936462 612.198120,677.166077 613.133667,677.681030 
z"/>
<path fill="#AD7D51" opacity="1.000000" stroke="none" 
	d="
M146.997650,547.992676 
	C141.621002,546.149353 136.278290,544.197266 130.854507,542.505005 
	C127.786095,541.547668 124.678871,539.077820 121.057457,542.058044 
	C119.099205,538.216064 122.405273,538.113037 124.548691,537.337280 
	C149.693390,528.236877 174.860764,519.199097 200.005554,510.098969 
	C201.697205,509.486786 203.255157,508.505157 204.995834,507.359253 
	C208.042526,508.087402 210.968674,509.151703 213.722366,510.539062 
	C205.265289,508.104980 199.484390,513.738708 192.620209,517.005493 
	C183.061035,521.566101 173.852570,526.070557 164.698227,530.682434 
	C157.546722,534.285339 150.462387,538.021606 144.389374,541.160522 
	C145.437912,543.907043 146.217773,545.949829 146.997650,547.992676 
z"/>
<path fill="#EFFEF1" opacity="1.000000" stroke="none" 
	d="
M119.948135,696.337097 
	C120.315010,727.750671 120.340912,759.406372 120.339050,791.508118 
	C119.873314,790.642029 119.056297,789.330872 119.053055,788.017761 
	C118.980789,758.656128 118.991417,729.294189 119.024178,699.932373 
	C119.025421,698.814514 119.404274,697.696960 119.948135,696.337097 
z"/>
<path fill="#EFFEF1" opacity="1.000000" stroke="none" 
	d="
M120.999634,380.925659 
	C120.781105,383.023315 120.376274,385.120636 120.372131,387.218719 
	C120.313644,416.813568 120.309631,446.408508 120.250298,476.465210 
	C119.804298,475.237915 119.052475,473.549713 119.048309,471.859711 
	C118.976562,442.727417 118.981529,413.594849 119.025291,384.462433 
	C119.028954,382.023346 117.995399,378.625397 122.812798,379.386902 
	C122.364243,380.085327 121.681938,380.505493 120.999634,380.925659 
z"/>
<path fill="#0A4D1B" opacity="1.000000" stroke="none" 
	d="
M392.941559,792.033569 
	C392.965759,822.941284 392.994354,853.848877 392.993805,884.756531 
	C392.993774,885.726196 392.692566,886.695862 392.209717,887.965942 
	C391.887634,888.266357 391.433533,888.146667 391.241821,888.011780 
	C391.365906,884.312744 391.944397,880.749329 391.955444,877.184265 
	C392.035156,851.439514 392.024841,825.694397 391.961243,799.949585 
	C391.955170,797.498413 391.388489,795.048767 391.359650,792.219116 
	C392.071991,791.904419 392.506775,791.968994 392.941559,792.033569 
z"/>
<path fill="#EFFEF1" opacity="1.000000" stroke="none" 
	d="
M666.069824,791.661133 
	C665.734985,760.273071 665.738525,728.640808 665.710205,696.547791 
	C666.117859,697.420715 666.937744,698.753479 666.941040,700.088196 
	C667.012878,729.572327 666.999878,759.056763 666.968445,788.541077 
	C666.967407,789.499878 666.603149,790.458374 666.069824,791.661133 
z"/>
<path fill="#EFFEF1" opacity="1.000000" stroke="none" 
	d="
M666.085083,476.630859 
	C665.752869,445.241333 665.757996,413.614624 665.806641,381.526917 
	C666.233276,382.435181 666.947815,383.803741 666.950745,385.173798 
	C667.013733,414.621613 667.002380,444.069611 666.971619,473.517517 
	C666.970642,474.476471 666.613586,475.434998 666.085083,476.630859 
z"/>
<path fill="#0A4D1B" opacity="1.000000" stroke="none" 
	d="
M546.067139,338.663269 
	C541.363159,340.939667 536.570618,342.948059 531.394470,344.943970 
	C532.052246,340.928833 535.515381,341.265442 538.523621,340.589081 
	C540.598450,340.122589 542.562805,339.164612 544.824341,338.144867 
	C545.374207,338.040710 545.676331,338.217987 546.067139,338.663269 
z"/>
<path fill="#449456" opacity="1.000000" stroke="none" 
	d="
M121.343979,381.071472 
	C121.681938,380.505493 122.364243,380.085327 123.257774,379.426758 
	C123.836365,379.152649 124.203735,379.116913 125.100647,378.922607 
	C125.930038,378.527649 126.229889,378.291290 126.529739,378.054932 
	C128.394089,377.608673 130.258423,377.162415 132.489563,376.690552 
	C131.224045,377.844208 129.591736,379.023468 127.641487,380.432434 
	C129.348251,381.636749 130.598145,382.518707 131.904480,383.760742 
	C128.536728,383.152954 125.112526,382.185120 121.343979,381.071472 
z"/>
<path fill="#449456" opacity="1.000000" stroke="none" 
	d="
M135.436188,375.571014 
	C135.018112,375.998199 134.267426,376.443634 133.147736,376.815979 
	C133.553680,376.358337 134.328629,375.973816 135.436188,375.571014 
z"/>
<path fill="#449456" opacity="1.000000" stroke="none" 
	d="
M136.716736,375.079681 
	C136.715561,375.298706 136.457870,375.504883 135.943573,375.690277 
	C135.944702,375.468628 136.202454,375.267731 136.716736,375.079681 
z"/>
<path fill="#AD7D51" opacity="1.000000" stroke="none" 
	d="
M120.923073,635.356995 
	C121.166946,635.126770 121.456642,635.255066 121.840973,635.692017 
	C121.664413,635.790405 121.342178,635.695312 120.923073,635.356995 
z"/>
<path fill="#EFFEF1" opacity="1.000000" stroke="none" 
	d="
M126.254990,378.117126 
	C126.229889,378.291290 125.930038,378.527649 125.335342,378.766357 
	C125.353737,378.572296 125.666985,378.375824 126.254990,378.117126 
z"/>
<path fill="#3F9D4A" opacity="1.000000" stroke="none" 
	d="
M393.325073,791.976685 
	C392.506775,791.968994 392.071991,791.904419 391.310669,791.786987 
	C379.317566,787.455811 367.690186,783.066711 355.976410,778.921631 
	C330.170685,769.790039 304.316040,760.796753 278.507965,751.671753 
	C277.387421,751.275574 276.531555,750.130920 275.793335,749.107300 
	C286.214233,743.025269 295.403107,748.223694 304.729034,751.510925 
	C320.402588,757.035583 336.028198,762.697144 351.727966,768.145447 
	C353.081482,768.615112 354.942322,768.226440 356.391754,767.726807 
	C385.013519,757.859924 413.609253,747.917664 442.795563,738.245117 
	C443.380829,740.620422 443.380829,742.741333 443.380829,745.732422 
	C444.130951,746.098572 446.080994,747.050476 448.031036,748.002380 
	C448.050873,748.528442 448.070679,749.054443 448.090515,749.580505 
	C446.447510,750.054993 444.757019,750.410400 443.175812,751.040100 
	C441.795013,751.589844 439.320923,752.866211 439.404419,753.109436 
	C441.152130,758.200134 436.746979,760.922302 435.129700,764.644043 
	C433.059357,769.408325 434.075562,771.659668 439.114685,773.129700 
	C439.868134,773.349487 440.385681,774.378052 441.012329,775.032410 
	C434.921570,777.424744 428.893341,779.994690 422.725555,782.168518 
	C413.102966,785.560059 403.385742,788.683105 393.325073,791.976685 
z"/>
<path fill="#46A149" opacity="1.000000" stroke="none" 
	d="
M427.027496,465.016357 
	C422.594055,466.658295 418.176514,468.344940 413.723389,469.931763 
	C407.036377,472.314575 400.324463,474.627502 392.893585,476.981964 
	C391.460968,476.964355 390.757935,476.934967 390.054871,476.905609 
	C390.054871,476.905609 390.041870,476.885986 389.889740,476.567566 
	C386.186462,475.125732 382.635345,474.002319 379.084198,472.878906 
	C379.084198,472.878906 379.022095,472.912750 378.951172,472.708923 
	C378.662323,472.238159 378.381714,472.089935 378.038452,472.060394 
	C369.779175,468.968506 361.519928,465.876648 353.444153,462.441895 
	C361.199860,463.232422 363.919220,462.012970 366.747742,457.193634 
	C364.689636,452.749725 361.588959,449.102295 361.758636,445.613892 
	C361.950714,441.664948 358.976471,435.513184 365.988678,433.454285 
	C366.215240,433.387817 366.062469,430.211975 365.301544,428.964264 
	C363.516541,426.037170 361.152405,423.470612 359.214172,420.627533 
	C357.138397,417.582703 358.508881,414.833496 362.165680,415.149384 
	C364.004120,415.308197 365.651978,417.100281 367.507782,417.853851 
	C368.561646,418.281738 369.861481,418.103912 371.050537,418.198853 
	C371.016998,417.035309 371.354919,415.685760 370.882385,414.742065 
	C369.265778,411.513794 367.364441,408.428101 365.784180,405.038177 
	C380.337036,399.540039 394.677460,394.291779 409.184509,389.338470 
	C409.892059,389.985535 410.527100,390.731873 410.959351,390.628693 
	C415.272736,389.599182 417.612061,389.883118 414.473602,394.980072 
	C414.200562,395.423553 415.572113,397.723724 416.376190,397.843506 
	C420.337006,398.433777 421.635712,401.095215 421.964691,404.443207 
	C422.740387,412.336639 423.120911,420.274200 424.088623,428.141327 
	C424.589081,432.209381 424.869141,435.545685 419.138550,435.679047 
	C421.090973,438.483307 422.755066,440.704895 424.207367,443.057281 
	C424.671722,443.809387 424.984161,445.086670 424.664886,445.817261 
	C423.208282,449.150208 421.570435,452.410095 419.871887,455.629883 
	C416.006012,462.957977 417.200287,464.973114 425.530548,465.002686 
	C426.029541,465.004456 426.528503,465.011658 427.027496,465.016357 
z"/>
<path fill="#409E49" opacity="1.000000" stroke="none" 
	d="
M365.571747,405.288025 
	C367.364441,408.428101 369.265778,411.513794 370.882385,414.742065 
	C371.354919,415.685760 371.016998,417.035309 371.050537,418.198853 
	C369.861481,418.103912 368.561646,418.281738 367.507782,417.853851 
	C365.651978,417.100281 364.004120,415.308197 362.165680,415.149384 
	C358.508881,414.833496 357.138397,417.582703 359.214172,420.627533 
	C361.152405,423.470612 363.516541,426.037170 365.301544,428.964264 
	C366.062469,430.211975 366.215240,433.387817 365.988678,433.454285 
	C358.976471,435.513184 361.950714,441.664948 361.758636,445.613892 
	C361.588959,449.102295 364.689636,452.749725 366.747742,457.193634 
	C363.919220,462.012970 361.199860,463.232422 353.235413,462.156158 
	C352.843140,462.213287 352.863861,462.127991 352.775635,461.883850 
	C352.128723,461.752777 351.570068,461.865845 351.011383,461.978912 
	C332.078064,455.342346 313.143188,448.710205 294.212433,442.066406 
	C288.959503,440.222870 283.718719,438.344543 277.210388,436.034180 
	C295.795471,429.299683 313.161804,423.006805 331.160522,416.434937 
	C333.218353,415.816956 334.643799,415.477905 336.347137,415.378235 
	C341.893860,416.035858 347.162689,416.454102 351.505432,416.798859 
	C351.344818,414.642700 351.171814,412.319702 351.299683,409.899323 
	C352.464508,409.225555 353.328461,408.649200 354.192413,408.072815 
	C354.192413,408.072815 354.609314,408.053253 355.190369,407.960022 
	C359.038208,407.007172 362.304962,406.147614 365.571747,405.288025 
M360.936951,452.744568 
	C359.953613,451.916107 358.970276,451.087616 357.986969,450.259125 
	C357.355164,451.108490 356.152863,452.015320 356.231201,452.793121 
	C356.336945,453.842590 357.427948,454.792755 358.096161,455.785553 
	C359.051849,455.032501 360.007538,454.279480 360.936951,452.744568 
z"/>
<path fill="#C39158" opacity="1.000000" stroke="none" 
	d="
M192.994263,516.995605 
	C199.484390,513.738708 205.265289,508.104980 213.996475,510.781464 
	C230.035782,516.114624 245.628510,521.528442 261.318481,527.333984 
	C239.943893,537.816284 218.472061,547.906921 196.831940,557.693726 
	C192.638046,554.120911 192.701721,550.143433 195.736420,545.586731 
	C198.290222,541.752075 199.903809,537.287476 201.870377,533.072266 
	C202.042984,532.702271 201.878479,532.035217 201.646027,531.637329 
	C198.786438,526.742493 195.884933,521.872253 192.994263,516.995605 
z"/>
<path fill="#CD9B5F" opacity="1.000000" stroke="none" 
	d="
M334.630524,552.958130 
	C330.414124,555.371887 325.990479,557.926270 321.295990,559.803284 
	C305.161011,566.254211 288.931244,572.468018 272.169495,578.652954 
	C269.065887,577.360840 266.530365,576.187988 264.162598,574.710815 
	C267.010345,573.145508 269.690369,571.884460 272.370361,570.623413 
	C272.913025,570.763916 273.455688,570.904419 273.998352,571.044922 
	C273.998352,563.788086 274.102142,556.528870 273.932434,549.276001 
	C273.884216,547.214966 273.027191,545.175415 272.563690,543.120911 
	C272.029755,540.754272 271.520905,538.382019 271.323761,535.859619 
	C272.794525,534.538330 273.942657,533.369629 275.090790,532.200928 
	C292.482086,538.239441 309.873657,544.277100 327.264252,550.317749 
	C329.611969,551.133301 331.954285,551.964417 334.630524,552.958130 
z"/>
<path fill="#CD9B5F" opacity="1.000000" stroke="none" 
	d="
M319.255005,596.684021 
	C310.067505,593.595886 301.094879,590.241089 292.009674,586.561279 
	C301.724487,582.169373 311.573792,578.154236 321.373383,574.021240 
	C331.789948,569.628052 342.159393,565.123169 352.758606,560.400879 
	C362.456024,563.272461 371.944275,566.410217 381.723877,569.761475 
	C372.244904,573.994995 362.465118,577.992310 352.707397,582.042786 
	C345.657166,584.969360 338.620789,587.930664 331.608154,590.945984 
	C327.531525,592.698853 323.514008,594.588989 319.255005,596.684021 
z"/>
<path fill="#B57F4B" opacity="1.000000" stroke="none" 
	d="
M274.858582,531.984253 
	C273.942657,533.369629 272.794525,534.538330 271.002625,535.995972 
	C261.234039,540.849548 252.109207,545.414307 242.593719,549.985840 
	C235.805161,552.553040 229.369247,555.025696 223.049545,557.766357 
	C222.078339,558.187561 221.642181,559.842529 220.642136,561.083069 
	C215.523224,563.837341 210.720764,566.435425 205.918304,569.033508 
	C200.440613,567.194275 194.962921,565.355103 189.453156,562.987427 
	C191.947464,560.971863 194.473846,559.484741 197.000214,557.997559 
	C218.472061,547.906921 239.943893,537.816284 261.646637,527.501343 
	C266.127136,528.773865 270.376740,530.270691 274.858582,531.984253 
z"/>
<path fill="#0A4D1B" opacity="1.000000" stroke="none" 
	d="
M365.784180,405.038177 
	C362.304962,406.147614 359.038208,407.007172 355.391205,407.903259 
	C358.374634,406.115112 361.588715,403.903107 365.129120,402.536346 
	C377.137146,397.900543 389.239655,393.505676 401.351196,389.144043 
	C405.614319,387.608826 410.078308,386.626343 414.326538,385.055878 
	C422.888184,381.890869 431.294159,378.295929 439.897522,375.255096 
	C447.536591,372.555084 455.420959,370.552094 463.074615,367.889374 
	C469.056519,365.808167 475.521606,364.138733 480.568481,360.579742 
	C487.827026,355.461090 496.618347,356.759644 504.104340,353.107697 
	C508.178406,351.120209 512.850403,350.358246 517.665527,349.082886 
	C517.041931,349.838104 516.005493,350.553955 514.610901,351.502380 
	C514.252747,351.734955 514.012329,351.852875 513.679871,351.872986 
	C512.544739,352.205109 511.742065,352.517181 510.613434,352.845093 
	C509.514587,353.195282 508.741669,353.529633 507.729614,353.901367 
	C507.490448,353.938721 507.037415,354.109467 506.678345,354.182037 
	C496.657562,357.763733 486.990875,361.259369 477.335510,364.786041 
	C469.118164,367.787567 460.913818,370.824768 452.334778,373.887604 
	C437.649872,378.967194 423.333893,384.005341 409.017883,389.043518 
	C394.677460,394.291779 380.337036,399.540039 365.784180,405.038177 
z"/>
<path fill="#449456" opacity="1.000000" stroke="none" 
	d="
M372.793030,384.263397 
	C378.358490,382.323975 383.709656,380.615173 389.082642,378.977997 
	C391.445679,378.257965 393.853119,377.683624 396.643036,377.074951 
	C392.484406,379.015381 388.003174,381.150421 383.348969,382.796112 
	C351.842224,393.936707 320.298889,404.973846 288.383057,416.048706 
	C289.245056,414.724884 290.322052,412.487610 291.765594,412.218811 
	C300.027496,410.680603 307.625183,407.738007 315.101227,403.873871 
	C319.323242,401.691650 324.538940,401.431885 329.652283,400.151855 
	C338.433777,396.978546 346.872681,393.967102 355.303497,390.933136 
	C356.697601,390.431458 358.042389,389.793457 359.433929,389.283813 
	C363.812378,387.680237 368.202179,386.107697 372.793030,384.263397 
z"/>
<path fill="#449456" opacity="1.000000" stroke="none" 
	d="
M438.770935,360.271484 
	C443.980713,358.529205 448.926666,356.973206 453.919281,355.584900 
	C457.376740,354.623474 460.898468,353.893280 464.835266,353.101501 
	C456.633545,356.426727 448.032654,359.834656 439.329437,362.957367 
	C431.237244,365.860870 423.035889,368.460266 414.485870,371.156250 
	C415.263245,370.252136 416.437286,369.385315 418.186707,368.263367 
	C420.179810,367.009705 421.597534,366.011230 423.015259,365.012756 
	C428.185852,363.518250 433.356445,362.023773 438.770935,360.271484 
z"/>
<path fill="#0A4D1B" opacity="1.000000" stroke="none" 
	d="
M390.272095,477.231750 
	C390.757935,476.934967 391.460968,476.964355 392.511780,477.047150 
	C392.909485,505.056732 392.957581,533.012878 393.011444,560.968994 
	C393.018494,564.630005 393.055115,568.291016 393.135040,572.403809 
	C392.002808,572.692017 390.813568,572.528503 389.336670,572.131714 
	C390.032593,570.223206 391.863129,568.553406 391.873596,566.872131 
	C392.050110,538.597900 392.022766,510.322205 391.935425,482.047150 
	C391.930786,480.549255 390.992828,479.054230 390.272095,477.231750 
z"/>
<path fill="#449456" opacity="1.000000" stroke="none" 
	d="
M141.150497,387.347809 
	C143.317505,387.560303 145.761002,387.860535 148.073410,388.581299 
	C154.005814,390.430389 159.945511,392.293579 165.751389,394.496155 
	C168.918610,395.697693 171.819641,397.600891 174.908386,399.514893 
	C163.773117,395.770477 152.570206,391.698792 141.150497,387.347809 
z"/>
<path fill="#449456" opacity="1.000000" stroke="none" 
	d="
M188.170944,404.323822 
	C193.985962,401.861328 198.264114,406.949188 203.554718,408.060608 
	C208.869247,409.177002 213.774811,412.240143 218.898895,414.822510 
	C208.761459,411.659088 198.584717,408.123352 188.170944,404.323822 
z"/>
<path fill="#449456" opacity="1.000000" stroke="none" 
	d="
M265.431366,424.176056 
	C270.932129,418.324249 278.698303,417.301880 286.811768,416.063354 
	C280.110016,418.771179 272.966339,421.448700 265.431366,424.176056 
z"/>
<path fill="#0A4D1B" opacity="1.000000" stroke="none" 
	d="
M336.069244,415.138885 
	C334.643799,415.477905 333.218353,415.816956 331.427399,416.211060 
	C333.515839,414.932587 335.846283,413.241058 338.450348,412.342804 
	C343.327637,410.660248 348.363403,409.437225 353.762817,408.047974 
	C353.328461,408.649200 352.464508,409.225555 350.925720,409.941864 
	C345.523682,411.767487 340.796478,413.453186 336.069244,415.138885 
z"/>
<path fill="#449456" opacity="1.000000" stroke="none" 
	d="
M224.123886,417.289795 
	C229.856674,416.689545 235.024994,418.923950 239.915222,422.572815 
	C234.788513,421.123352 229.593506,419.328705 224.123886,417.289795 
z"/>
<path fill="#0A4D1B" opacity="1.000000" stroke="none" 
	d="
M379.120300,473.234680 
	C382.635345,474.002319 386.186462,475.125732 389.899689,476.560364 
	C385.586060,478.571716 382.415833,475.932892 379.120300,473.234680 
z"/>
<path fill="#449456" opacity="1.000000" stroke="none" 
	d="
M243.342377,424.154724 
	C244.227341,423.916901 245.455200,423.665924 246.611496,423.854248 
	C250.497864,424.487213 254.358734,425.276672 258.684143,426.022278 
	C256.511658,428.616791 253.582031,428.310913 250.496460,427.014191 
	C248.239532,426.065704 245.935501,425.229279 243.342377,424.154724 
z"/>
<path fill="#0A4D1B" opacity="1.000000" stroke="none" 
	d="
M529.733398,345.034760 
	C526.424072,346.443176 522.695190,347.832123 518.577148,349.210999 
	C521.896606,347.805664 525.605225,346.410492 529.733398,345.034760 
z"/>
<path fill="#449456" opacity="1.000000" stroke="none" 
	d="
M397.465820,377.142822 
	C400.244232,375.931366 403.416260,374.756104 406.811462,373.827759 
	C403.976227,375.109436 400.917847,376.144226 397.465820,377.142822 
z"/>
<path fill="#449456" opacity="1.000000" stroke="none" 
	d="
M179.212891,401.324768 
	C181.154800,401.564362 183.364853,402.044159 185.766541,402.808838 
	C183.799133,402.584137 181.640076,402.074524 179.212891,401.324768 
z"/>
<path fill="#449456" opacity="1.000000" stroke="none" 
	d="
M134.260025,385.250244 
	C136.196030,385.509583 138.392456,386.015320 140.779999,386.806854 
	C138.820892,386.560669 136.670670,386.028656 134.260025,385.250244 
z"/>
<path fill="#449456" opacity="1.000000" stroke="none" 
	d="
M409.394226,373.093079 
	C410.442902,372.429993 411.845215,371.738068 413.645691,371.080505 
	C412.611877,371.764679 411.179871,372.414490 409.394226,373.093079 
z"/>
<path fill="#449456" opacity="1.000000" stroke="none" 
	d="
M260.313049,425.970398 
	C260.849457,425.472565 261.708649,424.982086 262.777344,424.723694 
	C262.203186,425.296448 261.419525,425.637085 260.313049,425.970398 
z"/>
<path fill="#449456" opacity="1.000000" stroke="none" 
	d="
M186.095566,403.341309 
	C186.505844,403.247253 187.073624,403.412415 187.808197,403.833282 
	C187.401001,403.926147 186.827042,403.763306 186.095566,403.341309 
z"/>
<path fill="#0A4D1B" opacity="1.000000" stroke="none" 
	d="
M387.812073,571.141235 
	C387.461304,571.299683 387.046936,571.198059 386.348938,570.947388 
	C386.626343,570.825989 387.187408,570.853638 387.812073,571.141235 
z"/>
<path fill="#46A149" opacity="1.000000" stroke="none" 
	d="
M351.329712,462.050018 
	C351.570068,461.865845 352.128723,461.752777 352.815979,461.866516 
	C352.512360,462.102631 352.080170,462.111877 351.329712,462.050018 
z"/>
<path fill="#449456" opacity="1.000000" stroke="none" 
	d="
M221.206940,416.151947 
	C221.262726,416.033478 221.550156,415.984039 221.871399,416.141113 
	C221.905212,416.347565 221.438599,416.221008 221.206940,416.151947 
z"/>
<path fill="#0A4D1B" opacity="1.000000" stroke="none" 
	d="
M378.159607,472.263397 
	C378.381714,472.089935 378.662323,472.238159 378.981323,472.727356 
	C378.764252,472.873016 378.497040,472.711914 378.159607,472.263397 
z"/>
<path fill="#BB8752" opacity="1.000000" stroke="none" 
	d="
M196.831940,557.693726 
	C194.473846,559.484741 191.947464,560.971863 189.214020,562.720886 
	C182.146835,560.714966 175.245071,558.564392 168.438126,556.146973 
	C161.459259,553.668396 154.573120,550.928833 147.322021,548.148071 
	C146.217773,545.949829 145.437912,543.907043 144.389374,541.160522 
	C150.462387,538.021606 157.546722,534.285339 164.698227,530.682434 
	C173.852570,526.070557 183.061035,521.566101 192.620209,517.005493 
	C195.884933,521.872253 198.786438,526.742493 201.646027,531.637329 
	C201.878479,532.035217 202.042984,532.702271 201.870377,533.072266 
	C199.903809,537.287476 198.290222,541.752075 195.736420,545.586731 
	C192.701721,550.143433 192.638046,554.120911 196.831940,557.693726 
z"/>
<path fill="#D7A76D" opacity="1.000000" stroke="none" 
	d="
M206.204865,569.266846 
	C210.720764,566.435425 215.523224,563.837341 221.017593,561.157959 
	C228.801773,563.388428 235.894058,565.700134 243.236450,568.270996 
	C250.322662,570.691772 257.158752,572.853455 263.994843,575.015137 
	C266.530365,576.187988 269.065887,577.360840 271.833130,578.803711 
	C266.689514,581.239563 261.381592,583.605896 255.897949,585.449585 
	C254.242493,586.006104 251.984238,585.446472 250.197906,584.830261 
	C235.602844,579.796265 221.054184,574.627747 206.204865,569.266846 
z"/>
<path fill="#4DA448" opacity="1.000000" stroke="none" 
	d="
M409.184509,389.338501 
	C423.333893,384.005341 437.649872,378.967194 452.711670,374.057007 
	C454.406403,374.446075 455.567047,375.195251 456.270416,374.890198 
	C461.324097,372.698364 463.604919,376.552551 466.773285,379.106476 
	C469.986664,381.696716 469.851105,385.060303 470.336548,388.457184 
	C471.076965,393.638397 474.125488,399.825317 472.274628,403.725037 
	C469.566681,409.430603 472.077148,412.193695 474.432434,416.043274 
	C475.338501,417.524170 475.426575,419.485992 476.038300,421.173981 
	C476.396454,422.162170 476.848083,423.280579 477.607788,423.932129 
	C482.168549,427.843658 481.835663,429.955170 476.598328,433.094238 
	C475.063538,434.014160 473.328003,436.202820 473.369568,437.765167 
	C473.428711,439.988464 473.439697,443.358337 477.589905,443.174805 
	C478.346802,443.141327 479.188385,445.022430 479.990875,446.019714 
	C478.372803,446.825409 476.818909,447.813873 475.126617,448.408295 
	C459.354401,453.948242 443.558411,459.420502 427.398376,464.964355 
	C426.528503,465.011658 426.029541,465.004456 425.530548,465.002686 
	C417.200287,464.973114 416.006012,462.957977 419.871887,455.629883 
	C421.570435,452.410095 423.208282,449.150208 424.664886,445.817261 
	C424.984161,445.086670 424.671722,443.809387 424.207367,443.057281 
	C422.755066,440.704895 421.090973,438.483307 419.138550,435.679047 
	C424.869141,435.545685 424.589081,432.209381 424.088623,428.141327 
	C423.120911,420.274200 422.740387,412.336639 421.964691,404.443207 
	C421.635712,401.095215 420.337006,398.433777 416.376190,397.843506 
	C415.572113,397.723724 414.200562,395.423553 414.473602,394.980072 
	C417.612061,389.883118 415.272736,389.599182 410.959351,390.628693 
	C410.527100,390.731873 409.892059,389.985535 409.184509,389.338501 
z"/>
<path fill="#56A847" opacity="1.000000" stroke="none" 
	d="
M480.367371,446.007965 
	C479.188385,445.022430 478.346802,443.141327 477.589905,443.174805 
	C473.439697,443.358337 473.428711,439.988464 473.369568,437.765167 
	C473.328003,436.202820 475.063538,434.014160 476.598328,433.094238 
	C481.835663,429.955170 482.168549,427.843658 477.607788,423.932129 
	C476.848083,423.280579 476.396454,422.162170 476.038300,421.173981 
	C475.426575,419.485992 475.338501,417.524170 474.432434,416.043274 
	C472.077148,412.193695 469.566681,409.430603 472.274628,403.725037 
	C474.125488,399.825317 471.076965,393.638397 470.336548,388.457184 
	C469.851105,385.060303 469.986664,381.696716 466.773285,379.106476 
	C463.604919,376.552551 461.324097,372.698364 456.270416,374.890198 
	C455.567047,375.195251 454.406403,374.446075 453.080566,374.015564 
	C460.913818,370.824768 469.118164,367.787567 477.335510,364.786041 
	C486.990875,361.259369 496.657562,357.763733 506.792511,354.312378 
	C507.500061,354.201416 507.734436,354.032684 507.968781,353.863983 
	C508.741669,353.529633 509.514587,353.195282 510.686523,353.196655 
	C511.671356,353.920593 512.257141,354.308838 512.842957,354.697113 
	C513.232788,353.749054 513.622559,352.800964 514.012329,351.852875 
	C514.012329,351.852875 514.252747,351.734955 514.383362,351.738403 
	C517.876953,352.007294 520.218811,354.233429 519.605469,357.122528 
	C519.259216,358.753540 515.919739,359.972504 513.729675,360.914978 
	C512.095337,361.618317 510.142517,361.581512 507.807831,361.958984 
	C511.615143,366.002899 516.386780,368.907288 517.466553,372.828339 
	C518.539795,376.725494 515.901245,381.644836 514.699890,386.958374 
	C516.971130,388.710724 519.904297,391.008057 522.873657,393.257599 
	C528.610413,397.603546 530.087708,402.888977 528.235168,410.094574 
	C527.582703,412.632385 527.495605,415.759949 528.394043,418.150879 
	C529.844604,422.010986 532.401550,425.087494 537.570007,423.186707 
	C538.969238,422.672119 540.804688,423.343262 542.722412,423.740540 
	C530.281982,428.644867 517.603638,433.406921 504.814697,437.850983 
	C499.555664,439.678436 494.008789,440.663025 488.690521,442.340515 
	C485.931732,443.210693 483.385925,444.755920 480.367371,446.007965 
z"/>
<path fill="#52A548" opacity="1.000000" stroke="none" 
	d="
M479.013184,725.171265 
	C498.792389,718.204956 518.571655,711.238708 538.709839,704.190857 
	C545.135376,707.327454 545.344482,708.259033 542.199463,714.050598 
	C541.673401,715.019409 541.842651,717.085754 542.549805,717.880188 
	C545.701233,721.420288 544.814331,724.443665 541.987061,727.519775 
	C536.896790,733.058105 536.909607,733.069885 540.964783,739.714111 
	C533.961304,742.729797 526.977173,745.573059 519.852966,748.006592 
	C509.571838,751.518433 499.189148,754.732910 488.245941,757.810303 
	C485.272705,756.111572 482.954712,754.581970 480.522308,753.263428 
	C476.503845,751.085022 476.496460,749.308228 479.179138,745.736633 
	C481.598755,742.515259 483.066956,738.579224 485.030792,734.812500 
	C480.953613,732.673584 478.777100,729.627625 479.013184,725.171265 
z"/>
<path fill="#48A14A" opacity="1.000000" stroke="none" 
	d="
M478.658081,725.245605 
	C478.777100,729.627625 480.953613,732.673584 485.030792,734.812500 
	C483.066956,738.579224 481.598755,742.515259 479.179138,745.736633 
	C476.496460,749.308228 476.503845,751.085022 480.522308,753.263428 
	C482.954712,754.581970 485.272705,756.111572 487.846100,757.830933 
	C487.449402,758.661011 486.939667,759.468994 486.234589,759.713379 
	C471.430511,764.844055 456.604431,769.911133 441.397491,775.011536 
	C440.385681,774.378052 439.868134,773.349487 439.114685,773.129700 
	C434.075562,771.659668 433.059357,769.408325 435.129700,764.644043 
	C436.746979,760.922302 441.152130,758.200134 439.404419,753.109436 
	C439.320923,752.866211 441.795013,751.589844 443.175812,751.040100 
	C444.757019,750.410400 446.447510,750.054993 448.090515,749.580505 
	C448.070679,749.054443 448.050873,748.528442 448.031036,748.002380 
	C446.080994,747.050476 444.130951,746.098572 443.380829,745.732422 
	C443.380829,742.741333 443.380829,740.620422 443.175934,738.223999 
	C451.304657,734.910034 459.630615,731.850281 467.975555,728.843140 
	C471.396973,727.610229 474.859283,726.490906 478.658081,725.245605 
z"/>
<path fill="#52A548" opacity="1.000000" stroke="none" 
	d="
M422.862732,364.732117 
	C421.597534,366.011230 420.179810,367.009705 418.382263,368.012634 
	C419.174561,366.304230 418.467377,362.110046 422.862732,364.732117 
z"/>
<path fill="#52A548" opacity="1.000000" stroke="none" 
	d="
M424.461914,356.058624 
	C425.566406,355.921875 426.633972,356.102234 427.701508,356.282593 
	C427.491028,356.834229 427.280548,357.385895 427.070099,357.937531 
	C426.188385,357.416931 425.306671,356.896332 424.461914,356.058624 
z"/>
<path fill="#46A149" opacity="1.000000" stroke="none" 
	d="
M336.347137,415.378235 
	C340.796478,413.453186 345.523682,411.767487 350.624847,410.039246 
	C351.171814,412.319702 351.344818,414.642700 351.505432,416.798859 
	C347.162689,416.454102 341.893860,416.035858 336.347137,415.378235 
z"/>
<path fill="#46A149" opacity="1.000000" stroke="none" 
	d="
M360.950073,453.135498 
	C360.007538,454.279480 359.051849,455.032501 358.096161,455.785553 
	C357.427948,454.792755 356.336945,453.842590 356.231201,452.793121 
	C356.152863,452.015320 357.355164,451.108490 357.986969,450.259125 
	C358.970276,451.087616 359.953613,451.916107 360.950073,453.135498 
z"/>
<path fill="#C4935B" opacity="1.000000" stroke="none" 
	d="
M264.162598,574.710815 
	C257.158752,572.853455 250.322662,570.691772 243.474091,568.032471 
	C242.833710,563.086060 241.741074,558.691772 244.203644,554.295166 
	C244.720001,553.373352 243.437820,551.444031 242.984406,549.979004 
	C252.109207,545.414307 261.234039,540.849548 270.679993,536.148560 
	C271.520905,538.382019 272.029755,540.754272 272.563690,543.120911 
	C273.027191,545.175415 273.884216,547.214966 273.932434,549.276001 
	C274.102142,556.528870 273.998352,563.788086 273.998352,571.044922 
	C273.455688,570.904419 272.913025,570.763916 272.370361,570.623413 
	C269.690369,571.884460 267.010345,573.145508 264.162598,574.710815 
z"/>
<path fill="#C39158" opacity="1.000000" stroke="none" 
	d="
M242.593719,549.985840 
	C243.437820,551.444031 244.720001,553.373352 244.203644,554.295166 
	C241.741074,558.691772 242.833710,563.086060 243.223969,567.773315 
	C235.894058,565.700134 228.801773,563.388428 221.334030,561.001831 
	C221.642181,559.842529 222.078339,558.187561 223.049545,557.766357 
	C229.369247,555.025696 235.805161,552.553040 242.593719,549.985840 
z"/>
<path fill="#60AB47" opacity="1.000000" stroke="none" 
	d="
M513.679871,351.872986 
	C513.622559,352.800964 513.232788,353.749054 512.842957,354.697113 
	C512.257141,354.308838 511.671356,353.920593 511.012451,353.180786 
	C511.742065,352.517181 512.544739,352.205109 513.679871,351.872986 
z"/>
<path fill="#60AB47" opacity="1.000000" stroke="none" 
	d="
M507.729614,353.901367 
	C507.734436,354.032684 507.500061,354.201416 507.151550,354.239807 
	C507.037415,354.109467 507.490448,353.938721 507.729614,353.901367 
z"/>
</svg>